<mxfile host="app.diagrams.net" modified="2023-05-08T07:21:07.478Z" agent="Mozilla/5.0 (Windows NT 10.0; Win64; x64) AppleWebKit/537.36 (KHTML, like Gecko) Chrome/111.0.0.0 Safari/537.36 OPR/97.0.0.0 (Edition std-1)" etag="IcoDmOhWGENXmAPwdBNx" version="21.2.9" type="github">
  <diagram name="Página-1" id="ewK1FqAB8NlVOUjzMfR2">
    <mxGraphModel dx="753" dy="471" grid="1" gridSize="10" guides="1" tooltips="1" connect="1" arrows="1" fold="1" page="1" pageScale="1" pageWidth="827" pageHeight="1169" math="0" shadow="0">
      <root>
        <mxCell id="0" />
        <mxCell id="1" parent="0" />
        <mxCell id="JrH1oryZnJq1H_sbEGOf-1" value="Usuario" style="shape=umlActor;verticalLabelPosition=bottom;verticalAlign=top;html=1;" vertex="1" parent="1">
          <mxGeometry x="180" y="140" width="30" height="60" as="geometry" />
        </mxCell>
        <mxCell id="JrH1oryZnJq1H_sbEGOf-3" value="Usuario Registrado" style="shape=umlActor;verticalLabelPosition=bottom;verticalAlign=top;html=1;" vertex="1" parent="1">
          <mxGeometry x="70" y="210" width="30" height="60" as="geometry" />
        </mxCell>
        <mxCell id="JrH1oryZnJq1H_sbEGOf-4" value="Critico" style="shape=umlActor;verticalLabelPosition=bottom;verticalAlign=top;html=1;" vertex="1" parent="1">
          <mxGeometry x="220" y="330" width="30" height="60" as="geometry" />
        </mxCell>
        <mxCell id="JrH1oryZnJq1H_sbEGOf-5" value="Administrador" style="shape=umlActor;verticalLabelPosition=bottom;verticalAlign=top;html=1;" vertex="1" parent="1">
          <mxGeometry x="110" y="450" width="30" height="60" as="geometry" />
        </mxCell>
        <mxCell id="JrH1oryZnJq1H_sbEGOf-8" value="Consultar Películas" style="ellipse;whiteSpace=wrap;html=1;" vertex="1" parent="1">
          <mxGeometry x="380" y="135" width="140" height="70" as="geometry" />
        </mxCell>
        <mxCell id="JrH1oryZnJq1H_sbEGOf-9" value="" style="endArrow=none;html=1;rounded=0;exitX=0.5;exitY=0.5;exitDx=0;exitDy=0;exitPerimeter=0;" edge="1" parent="1" source="JrH1oryZnJq1H_sbEGOf-1" target="JrH1oryZnJq1H_sbEGOf-8">
          <mxGeometry width="50" height="50" relative="1" as="geometry">
            <mxPoint x="360" y="370" as="sourcePoint" />
            <mxPoint x="410" y="320" as="targetPoint" />
          </mxGeometry>
        </mxCell>
        <mxCell id="JrH1oryZnJq1H_sbEGOf-10" value="Extends" style="endArrow=block;endSize=16;endFill=0;html=1;rounded=0;exitX=0.5;exitY=0.5;exitDx=0;exitDy=0;exitPerimeter=0;entryX=0.5;entryY=0.5;entryDx=0;entryDy=0;entryPerimeter=0;" edge="1" parent="1" source="JrH1oryZnJq1H_sbEGOf-3" target="JrH1oryZnJq1H_sbEGOf-1">
          <mxGeometry width="160" relative="1" as="geometry">
            <mxPoint x="310" y="350" as="sourcePoint" />
            <mxPoint x="470" y="350" as="targetPoint" />
          </mxGeometry>
        </mxCell>
        <mxCell id="JrH1oryZnJq1H_sbEGOf-11" value="Votar Películas" style="ellipse;whiteSpace=wrap;html=1;" vertex="1" parent="1">
          <mxGeometry x="370" y="240" width="140" height="70" as="geometry" />
        </mxCell>
        <mxCell id="JrH1oryZnJq1H_sbEGOf-12" value="" style="endArrow=none;html=1;rounded=0;exitX=0.5;exitY=0.5;exitDx=0;exitDy=0;exitPerimeter=0;entryX=0;entryY=0.5;entryDx=0;entryDy=0;" edge="1" parent="1" source="JrH1oryZnJq1H_sbEGOf-3" target="JrH1oryZnJq1H_sbEGOf-11">
          <mxGeometry width="50" height="50" relative="1" as="geometry">
            <mxPoint x="300" y="240" as="sourcePoint" />
            <mxPoint x="380" y="250" as="targetPoint" />
          </mxGeometry>
        </mxCell>
        <mxCell id="JrH1oryZnJq1H_sbEGOf-13" value="Escribir comentario" style="ellipse;whiteSpace=wrap;html=1;" vertex="1" parent="1">
          <mxGeometry x="610" y="180" width="140" height="70" as="geometry" />
        </mxCell>
        <mxCell id="JrH1oryZnJq1H_sbEGOf-14" value="&amp;lt;&amp;lt;include&amp;gt;&amp;gt;" style="endArrow=open;endSize=12;dashed=1;html=1;rounded=0;exitX=1;exitY=0.5;exitDx=0;exitDy=0;entryX=0;entryY=0.5;entryDx=0;entryDy=0;" edge="1" parent="1" source="JrH1oryZnJq1H_sbEGOf-11" target="JrH1oryZnJq1H_sbEGOf-13">
          <mxGeometry width="160" relative="1" as="geometry">
            <mxPoint x="530" y="320" as="sourcePoint" />
            <mxPoint x="690" y="320" as="targetPoint" />
            <Array as="points" />
          </mxGeometry>
        </mxCell>
        <mxCell id="JrH1oryZnJq1H_sbEGOf-15" value="Extends" style="endArrow=block;endSize=16;endFill=0;html=1;rounded=0;exitX=0.5;exitY=0.5;exitDx=0;exitDy=0;exitPerimeter=0;entryX=0.5;entryY=0.5;entryDx=0;entryDy=0;entryPerimeter=0;" edge="1" parent="1" source="JrH1oryZnJq1H_sbEGOf-4" target="JrH1oryZnJq1H_sbEGOf-3">
          <mxGeometry width="160" relative="1" as="geometry">
            <mxPoint x="310" y="350" as="sourcePoint" />
            <mxPoint x="470" y="350" as="targetPoint" />
          </mxGeometry>
        </mxCell>
        <mxCell id="JrH1oryZnJq1H_sbEGOf-16" value="Tiempo" style="shape=umlActor;verticalLabelPosition=bottom;verticalAlign=top;html=1;" vertex="1" parent="1">
          <mxGeometry x="270" y="435" width="30" height="60" as="geometry" />
        </mxCell>
        <mxCell id="JrH1oryZnJq1H_sbEGOf-17" value="Recibir Películas" style="ellipse;whiteSpace=wrap;html=1;" vertex="1" parent="1">
          <mxGeometry x="420" y="435" width="140" height="70" as="geometry" />
        </mxCell>
        <mxCell id="JrH1oryZnJq1H_sbEGOf-18" value="GestMovie" style="shape=umlActor;verticalLabelPosition=bottom;verticalAlign=top;html=1;" vertex="1" parent="1">
          <mxGeometry x="640" y="430" width="30" height="60" as="geometry" />
        </mxCell>
        <mxCell id="JrH1oryZnJq1H_sbEGOf-19" value="" style="endArrow=none;html=1;rounded=0;exitX=0.5;exitY=0.5;exitDx=0;exitDy=0;exitPerimeter=0;entryX=0;entryY=0.5;entryDx=0;entryDy=0;" edge="1" parent="1" source="JrH1oryZnJq1H_sbEGOf-16" target="JrH1oryZnJq1H_sbEGOf-17">
          <mxGeometry width="50" height="50" relative="1" as="geometry">
            <mxPoint x="335" y="390" as="sourcePoint" />
            <mxPoint x="520" y="390" as="targetPoint" />
          </mxGeometry>
        </mxCell>
        <mxCell id="JrH1oryZnJq1H_sbEGOf-20" value="" style="endArrow=none;html=1;rounded=0;exitX=1;exitY=0.5;exitDx=0;exitDy=0;entryX=0.5;entryY=0.5;entryDx=0;entryDy=0;entryPerimeter=0;" edge="1" parent="1" source="JrH1oryZnJq1H_sbEGOf-17" target="JrH1oryZnJq1H_sbEGOf-18">
          <mxGeometry width="50" height="50" relative="1" as="geometry">
            <mxPoint x="510" y="370" as="sourcePoint" />
            <mxPoint x="695" y="370" as="targetPoint" />
          </mxGeometry>
        </mxCell>
      </root>
    </mxGraphModel>
  </diagram>
</mxfile>
